<svg xmlns="http://www.w3.org/2000/svg" version="1.1" xmlns:xlink="http://www.w3.org/1999/xlink" xmlns:svgjs="http://svgjs.dev/svgjs" width="1000" height="1000"><g clip-path="url(#SvgjsClipPath1550)"><rect width="1000" height="1000" fill="#f0fff4"></rect><g transform="matrix(29.166666666666668,0,0,29.166666666666668,150,150)"><svg xmlns="http://www.w3.org/2000/svg" version="1.1" xmlns:xlink="http://www.w3.org/1999/xlink" xmlns:svgjs="http://svgjs.dev/svgjs" width="24" height="24"><svg width="24" height="24" viewBox="0 0 24 24" fill="none" xmlns="http://www.w3.org/2000/svg">
<path d="M12.5 22C8.35938 22 5 18.6406 5 14.5C5 10.9375 10.0859 4.25391 11.5078 2.45703C11.7422 2.16406 12.0898 2 12.4648 2H12.5352C12.9102 2 13.2578 2.16406 13.4922 2.45703C14.9141 4.25391 20 10.9375 20 14.5C20 18.6406 16.6406 22 12.5 22ZM8.75 15.125C8.75 14.7812 8.46875 14.5 8.125 14.5C7.78125 14.5 7.5 14.7812 7.5 15.125C7.5 17.543 9.45703 19.5 11.875 19.5C12.2188 19.5 12.5 19.2188 12.5 18.875C12.5 18.5312 12.2188 18.25 11.875 18.25C10.1484 18.25 8.75 16.8516 8.75 15.125Z" fill="#018D5E"></path>
</svg></svg></g></g><defs><clipPath id="SvgjsClipPath1550"><rect width="1000" height="1000" x="0" y="0" rx="350" ry="350"></rect></clipPath></defs></svg>